<svg width="100" height="100" viewBox="0 0 100 100" fill="none" xmlns="http://www.w3.org/2000/svg">
<path fill-rule="evenodd" clip-rule="evenodd" d="M55.492 21H58.8869C59.7355 21.7253 60.5526 22.4976 61.3345 23.315C67.5232 29.785 71 38.5602 71 47.7102C71 55.5069 68.4756 63.0316 63.8999 69.0897C73.1801 69.3033 78.4053 67.7703 83.2816 65.007C84.3243 64.396 85.4677 63.7785 86.528 63.2059C87.2152 62.8348 87.8676 62.4825 88.435 62.1631C90.5983 60.945 92.3527 59.9573 94.1952 59.3626C93.9756 59.8125 93.7433 60.2592 93.4985 60.7026C91.1867 64.8883 87.7984 68.6916 83.5269 71.8952C82.5439 72.6325 81.5185 73.3347 80.4543 74H55.7987C58.8548 69.7538 62.4506 63.0266 63.6153 53.8662C59.6108 54.3741 56.2625 57.1601 53.1767 59.7276C52.4379 60.3423 51.7141 60.9446 51 61.5C50.2859 60.9446 49.5619 60.3422 48.8232 59.7275C45.7444 57.1659 42.4046 54.3869 38.4124 53.8697C39.6255 63.0731 43.2894 69.7996 46.3536 74H42.8696C42.108 73.3362 41.3723 72.6342 40.6655 71.8952C35.9595 66.9753 32.8216 60.7225 31.5882 53.9855C24.1704 53.3312 17.1432 52.4893 12.3367 51.8664C13.888 61.62 20.698 68.6309 30.6349 74H21.5457C20.4815 73.3347 19.4561 72.6325 18.4731 71.8952C14.2016 68.6916 10.8133 64.8883 8.50154 60.7026C6.18983 56.5168 5 52.0306 5 47.5C5 42.9694 6.18983 38.4832 8.50154 34.2974C10.8133 30.1117 14.2016 26.3084 18.4731 23.1048C19.4561 22.3675 20.4815 21.6653 21.5457 21H28.8475C19.8979 26.4968 13.5429 34.3114 12.2449 43.8545C16.9344 44.4631 23.774 45.2851 31.0339 45.9362C31.406 37.3552 34.8302 29.2053 40.6655 23.1048C41.3723 22.3658 42.108 21.6638 42.8696 21H46.3536C42.7378 25.9565 38.287 34.4305 38.0133 46.341C43.145 48.1016 46.1357 49.68 51 53C55.8627 49.6811 58.853 48.1027 63.9815 46.3428C63.6565 34.3723 59.1132 25.897 55.492 21Z" fill="#314BA8"/>
<path fill-rule="evenodd" clip-rule="evenodd" d="M35.5282 15H66.4718C70.2044 15.9996 73.7143 17.3507 76.9308 19H25.0692C28.2857 17.3507 31.7956 15.9996 35.5282 15Z" fill="#314BA8"/>
<path fill-rule="evenodd" clip-rule="evenodd" d="M35.459 80H66.4026C70.1352 79.0004 73.6451 77.6493 76.8616 76H25C28.2165 77.6493 31.7264 79.0004 35.459 80Z" fill="#314BA8"/>
<path d="M53 84C53 82.8954 52.1046 82 51 82C49.8954 82 49 82.8954 49 84V91C49 92.1046 49.8954 93 51 93C52.1046 93 53 92.1046 53 91V84Z" fill="#314BA8"/>
<path d="M57 83C57 82.4477 56.5523 82 56 82C55.4477 82 55 82.4477 55 83V87C55 87.5523 55.4477 88 56 88C56.5523 88 57 87.5523 57 87V83Z" fill="#314BA8"/>
<path d="M47 87C47 87.5523 46.5523 88 46 88C45.4477 88 45 87.5523 45 87V83C45 82.4477 45.4477 82 46 82C46.5523 82 47 82.4477 47 83V87Z" fill="#314BA8"/>
<path fill-rule="evenodd" clip-rule="evenodd" d="M51 6C46.5817 6 43 9.58172 43 14H45C45 11.2386 47.2386 9 50 9H52C54.7614 9 57 11.2386 57 14H59C59 9.58172 55.4183 6 51 6Z" fill="#314BA8"/>
</svg>
