<svg width="24" height="24" viewBox="0 0 24 24" fill="none" xmlns="http://www.w3.org/2000/svg">
<path d="M21.959 14.093V21.472H17.681V14.587C17.681 12.857 17.062 11.677 15.514 11.677C14.332 11.677 13.628 12.473 13.319 13.242C13.206 13.517 13.177 13.9 13.177 14.285V21.472H8.897C8.897 21.472 8.955 9.812 8.897 8.603H13.177V10.427L13.149 10.469H13.177V10.427C13.745 9.55199 14.76 8.30099 17.033 8.30099C19.848 8.30099 21.959 10.141 21.959 14.093ZM4.421 2.39999C2.958 2.39999 2 3.35999 2 4.62299C2 5.858 2.93 6.84699 4.365 6.84699H4.39299C5.886 6.84699 6.813 5.858 6.813 4.62299C6.78699 3.35999 5.886 2.39999 4.421 2.39999ZM2.25399 21.472H6.53199V8.603H2.25399V21.472Z" fill="white"/>
</svg>
