<svg width="100" height="100" viewBox="0 0 100 100" fill="none" xmlns="http://www.w3.org/2000/svg">
<g clip-path="url(#clip0_1_44)">
<path d="M53.926 10.8859H50.5994V7.55933C50.5994 6.69616 49.9001 5.99753 49.0376 5.99753C48.1751 5.99753 47.4758 6.69616 47.4758 7.55933V10.8859H44.1493C43.2868 10.8859 42.5875 11.5852 42.5875 12.4477C42.5875 13.3102 43.2868 14.0095 44.1493 14.0095H47.4758V17.336C47.4758 18.1985 48.1751 18.8978 49.0376 18.8978C49.9001 18.8978 50.5994 18.1985 50.5994 17.336V14.0095H53.926C54.7884 14.0095 55.4878 13.3102 55.4878 12.4477C55.4878 11.5852 54.7884 10.8859 53.926 10.8859Z" fill="#41463D"/>
<path d="M63.6395 59.5127C63.5217 59.4472 63.3955 59.3977 63.2644 59.3642C61.6085 58.7618 59.9162 58.2668 58.1968 57.8805C61.7681 56.1521 64.7808 53.4523 66.8899 50.0902C68.999 46.7289 70.1188 42.8419 70.121 38.8738V10.449C70.1189 7.68238 69.0207 5.02946 67.0664 3.07087C65.1128 1.11299 62.4626 0.00866377 59.696 0.000274658H38.3769C35.6103 0.00864146 32.96 1.11306 31.0065 3.07087C29.0521 5.02946 27.9539 7.68238 27.9519 10.449V38.8738C27.9547 42.8453 29.0773 46.7366 31.1907 50.0993C33.304 53.4628 36.3223 56.1625 39.8998 57.8889C38.1651 58.2647 36.4569 58.7528 34.7849 59.3489C34.6706 59.3803 34.5611 59.4249 34.4573 59.4814C26.5415 62.4593 19.7212 67.7784 14.9053 74.7307C10.0894 81.6829 7.50625 89.9365 7.5 98.3933C7.5 99.2558 8.19933 99.9551 9.0618 99.9551C9.92427 99.9551 10.6236 99.2558 10.6236 98.3933C10.6292 91.1665 12.6707 84.0875 16.5145 77.9685C20.3584 71.8482 25.8484 66.9356 32.3564 63.7923C31.5134 67.0011 30.918 70.2696 30.5757 73.5688C28.2128 73.967 26.0673 75.1878 24.518 77.0159C22.9688 78.844 22.116 81.161 22.1105 83.5567V95.5281C22.1844 95.7826 22.1844 96.0539 22.1105 96.3091C22.1105 97.2761 22.4947 98.2034 23.1787 98.8874C23.8627 99.5713 24.7907 99.9555 25.7577 99.9555C26.6202 99.9555 27.3195 99.2562 27.3195 98.3937C27.3195 97.5313 26.6202 96.8319 25.7577 96.8319C25.4684 96.8319 25.2341 96.5977 25.2341 96.309C25.1609 96.0538 25.1609 95.7826 25.2341 95.5281V83.5567C25.2341 81.046 26.5742 78.7256 28.7482 77.4697C30.923 76.2147 33.6023 76.2147 35.7763 77.4697C37.9511 78.7255 39.2905 81.0458 39.2905 83.5567V95.5281C39.3644 95.7826 39.3644 96.0538 39.2905 96.309C39.2905 96.5977 39.0562 96.8319 38.7676 96.8319C37.9051 96.8319 37.2058 97.5313 37.2058 98.3937C37.2058 99.2562 37.9051 99.9555 38.7676 99.9555C39.7346 99.9555 40.6626 99.5714 41.3459 98.8874C42.0299 98.2034 42.414 97.2761 42.414 96.3091C42.3408 96.0539 42.3408 95.7826 42.414 95.5281V83.5567C42.4078 81.1219 41.5265 78.771 39.9312 76.9316C38.336 75.0923 36.132 73.8882 33.7231 73.5374C34.0975 70.2814 34.9802 64.8542 36.2534 62.1754L36.4953 62.0896L47.7794 77.4809C48.0736 77.8839 48.5422 78.1217 49.0407 78.1217C49.5392 78.1217 50.0078 77.8839 50.3013 77.4809L61.57 62.0896L61.8671 62.1914C64.6239 66.9785 65.7325 74.3106 66.0916 77.4189C63.6568 77.9871 61.6634 79.7282 60.7731 82.0638C59.8827 84.4002 60.2118 87.026 61.6509 89.0703C63.09 91.1153 65.4508 92.3103 67.9504 92.2608C70.45 92.2106 72.762 90.9214 74.1182 88.8213C75.4743 86.7212 75.6981 84.0836 74.715 81.7848C73.7319 79.486 71.6709 77.8266 69.2153 77.3561C68.7656 72.8093 67.7588 68.3353 66.2165 64.034C72.6004 67.2238 77.9705 72.1275 81.7258 78.1955C85.4811 84.2635 87.4738 91.2575 87.4808 98.3936C87.4808 99.2561 88.1794 99.9554 89.0426 99.9554C89.905 99.9554 90.6044 99.2561 90.6044 98.3936C90.5911 89.9411 88.0037 81.6929 83.1871 74.747C78.37 67.8012 71.5516 62.4875 63.6387 59.5124L63.6395 59.5127ZM72.2294 84.7443C72.2294 85.9101 71.7671 87.0278 70.9451 87.8533C70.1224 88.6788 69.0062 89.1446 67.8402 89.1488C66.6752 89.1529 65.5554 88.6949 64.7272 87.8749C63.8989 87.0557 63.4289 85.9408 63.4213 84.7758C63.4129 83.61 63.8668 82.4889 64.6832 81.6577C65.5004 80.8266 66.6131 80.3525 67.7783 80.3406C68.9496 80.3364 70.0749 80.798 70.9055 81.6242C71.7359 82.4504 72.2037 83.573 72.2058 84.7443L72.2294 84.7443ZM66.9975 29.9723C57.2989 29.6209 51.3013 26.6772 48.1148 24.4516L66.9975 24.4509V29.9723ZM31.076 10.4489C31.0781 8.51068 31.8471 6.6524 33.215 5.27962C34.5837 3.90746 36.439 3.13219 38.3774 3.1238H59.6964C61.6347 3.13216 63.4901 3.90748 64.8588 5.27962C66.2267 6.65247 66.9959 8.51068 66.9978 10.4489V21.3187H31.0764L31.076 10.4489ZM31.076 38.8737V24.4423H43.2971C45.1713 26.4412 52.1603 32.5951 66.9973 33.0951V38.8737C66.9973 45.2973 63.5704 51.2329 58.0072 54.445C52.444 57.6564 45.5902 57.6564 40.0277 54.445C34.4645 51.2329 31.0376 45.2973 31.0376 38.8737H31.076ZM49.0358 73.9117L39.665 61.1363C45.816 59.5877 52.2557 59.5877 58.4067 61.1363L49.0358 73.9117Z" fill="#41463D"/>
</g>
<defs>
<clipPath id="clip0_1_44">
<rect width="100" height="100" fill="white"/>
</clipPath>
</defs>
</svg>
