<svg width="100" height="100" viewBox="0 0 100 100" fill="none" xmlns="http://www.w3.org/2000/svg">
<g clip-path="url(#clip0_1_46)">
<g clip-path="url(#clip1_1_46)">
<path d="M93.4133 0.0777283H6.63319C4.90726 0.079181 3.25318 0.765632 2.03291 1.98605C0.812644 3.20647 0.12608 4.86043 0.124592 6.58633V93.3664C0.126045 95.0924 0.812495 96.7464 2.03291 97.9667C3.25333 99.187 4.9073 99.8735 6.63319 99.875H93.4133C95.1392 99.8736 96.7933 99.1871 98.0136 97.9667C99.2338 96.7463 99.9204 95.0923 99.9219 93.3664V6.58633C99.9205 4.8604 99.234 3.20632 98.0136 1.98605C96.7932 0.76578 95.1392 0.079216 93.4133 0.0777283V0.0777283ZM6.63319 4.41655H93.4133C94.6111 4.418 95.5816 5.38849 95.5831 6.58633V17.4337H4.46267V6.58633C4.46412 5.38849 5.43461 4.41804 6.63245 4.41655H6.63319ZM93.4133 95.537H6.63319C5.43535 95.5355 4.4649 94.565 4.46341 93.3672V21.7726H95.5838V93.3672C95.5824 94.565 94.6119 95.5355 93.414 95.537H93.4133ZM19.6504 10.9251C19.6671 9.38663 20.4974 7.97155 21.8332 7.20669C23.1691 6.44251 24.8093 6.44251 26.1452 7.20669C27.4811 7.9716 28.3113 9.3867 28.328 10.9251C28.3113 12.4644 27.481 13.8788 26.1452 14.6436C24.8094 15.4085 23.1691 15.4078 21.8332 14.6436C20.4973 13.8787 19.6671 12.4636 19.6504 10.9251ZM8.80223 10.9251C8.81966 9.38663 9.64995 7.97155 10.9858 7.20669C12.3209 6.44251 13.9619 6.44251 15.2978 7.20669C16.633 7.9716 17.4639 9.3867 17.4806 10.9251C17.4639 12.4644 16.6329 13.8788 15.2978 14.6436C13.962 15.4085 12.321 15.4078 10.9858 14.6436C9.64991 13.8787 8.81971 12.4636 8.80223 10.9251ZM47.8538 10.9251C47.8538 9.72731 48.8258 8.75537 50.0236 8.75537H89.0752C90.2731 8.75537 91.245 9.72731 91.245 10.9251C91.245 12.123 90.2731 13.0949 89.0752 13.0949H50.0236C48.8258 13.0949 47.8538 12.123 47.8538 10.9251V10.9251ZM49.7832 66.1553L42.6367 80.0398C42.3178 80.6471 41.7331 81.0684 41.0568 81.1795C40.3805 81.2899 39.6919 81.0771 39.1957 80.6035L35.5252 77.0375L29.8759 83.8978V83.8985C29.4902 84.3663 28.9265 84.6518 28.3214 84.6852C27.7163 84.7193 27.1243 84.4978 26.6892 84.075L22.8408 80.3369L18.9923 84.075C18.1286 84.882 16.7783 84.8494 15.9545 84.0016C15.1307 83.1539 15.1373 81.8029 15.969 80.9631L21.3291 75.7562C22.171 74.9383 23.5104 74.9383 24.3525 75.7562L28.0229 79.3222L33.6722 72.4619H33.6729C34.0579 71.9934 34.6216 71.7079 35.2275 71.6745C35.8326 71.6411 36.4246 71.8619 36.859 72.2846L40.1183 75.451L45.9245 64.1699H45.9252C46.4831 63.1232 47.7776 62.7185 48.8324 63.2612C49.8871 63.8038 50.3106 65.0932 49.7832 66.1551L49.7832 66.1553ZM47.8538 89.0284C47.8538 89.6037 47.6257 90.1557 47.2189 90.5625C46.8114 90.9693 46.2601 91.1981 45.6848 91.1981H10.9716C9.77378 91.1981 8.80184 90.2262 8.80184 89.0284V67.3324C8.81855 66.1462 9.7854 65.1939 10.9716 65.1939C12.1578 65.1939 13.1247 66.1462 13.1414 67.3324V86.8582H45.6844C46.2597 86.8582 46.8111 87.087 47.2186 87.4938C47.6254 87.9006 47.8535 88.4527 47.8535 89.028L47.8538 89.0284ZM91.2439 89.0284H91.2446C91.2446 89.6037 91.0158 90.1557 90.609 90.5625C90.2022 90.9693 89.6502 91.1981 89.0748 91.1981H58.702C57.5034 91.1981 56.5322 90.2262 56.5322 89.0284V67.3324C56.5489 66.1462 57.515 65.1939 58.702 65.1939C59.8882 65.1939 60.8543 66.1462 60.871 67.3324V86.8582H89.0756C89.6509 86.8582 90.203 87.087 90.6098 87.4938C91.0165 87.9006 91.2454 88.4527 91.2454 89.028L91.2439 89.0284ZM78.2274 67.3324C78.8921 67.3513 79.5154 67.66 79.9323 68.1779C80.35 68.6951 80.5192 69.37 80.3965 70.0237V82.5193C80.3965 83.7172 79.4253 84.6891 78.2275 84.6891C77.0289 84.6891 76.0577 83.7172 76.0577 82.5193V70.023C75.9349 69.37 76.1049 68.6951 76.5218 68.1779C76.9395 67.66 77.5628 67.3513 78.2275 67.3324L78.2274 67.3324ZM71.7188 71.6712C73.4179 71.7039 74.0651 73.1988 73.8886 74.7083L73.8879 82.5194C73.8879 83.7172 72.9167 84.6892 71.7188 84.6892C70.5203 84.6892 69.5491 83.7172 69.5491 82.5194V74.7091C69.3718 73.2032 70.0205 71.701 71.7188 71.672L71.7188 71.6712ZM84.736 62.9928V62.9936C85.3114 62.9936 85.8627 63.2224 86.2702 63.6292C86.677 64.036 86.9051 64.588 86.9051 65.1633V82.5194C86.9051 83.7172 85.9339 84.6891 84.7361 84.6891C83.5375 84.6891 82.5663 83.7172 82.5663 82.5194V65.1633C82.5663 63.9648 83.5375 62.9936 84.7361 62.9936L84.736 62.9928ZM65.2102 76.01V76.0108C65.7855 76.0108 66.3369 76.2396 66.7444 76.6464C67.1512 77.0532 67.3793 77.6052 67.3793 78.1805V82.5194C67.3793 83.7172 66.4081 84.6891 65.2102 84.6891C64.0117 84.6891 63.0405 83.7172 63.0405 82.5194V78.1805C63.0405 76.982 64.0117 76.0108 65.2102 76.0108L65.2102 76.01ZM80.3972 26.1114L80.3965 26.1121C79.1986 26.1121 78.2275 27.0833 78.2275 28.2812V36.9595C78.2275 37.5349 78.4555 38.0869 78.8623 38.4937C79.2698 38.9005 79.8212 39.1293 80.3965 39.1293H89.0749C89.6502 39.1293 90.2023 38.9005 90.6091 38.4937C91.0158 38.0869 91.2447 37.5349 91.2447 36.9595C91.241 34.0837 90.0969 31.3262 88.0638 29.293C86.0298 27.2589 83.2724 26.1149 80.3967 26.1121L80.3972 26.1114ZM82.567 34.7898L82.5663 30.8229C84.4172 31.4825 85.8743 32.9389 86.5332 34.7898H82.567ZM73.8879 58.6559C77.9143 58.6508 81.7744 57.0498 84.622 54.2023C87.4689 51.3555 89.0706 47.4955 89.0749 43.4689C89.0749 42.8936 88.846 42.3415 88.4392 41.9347C88.0324 41.5279 87.4804 41.2991 86.9051 41.2991H76.0577V30.4517C76.0577 29.8764 75.8288 29.3243 75.422 28.9175C75.0152 28.5107 74.4632 28.2819 73.8879 28.2819C53.767 29.0446 53.7744 57.896 73.8879 58.6566V58.6559ZM71.7188 32.839V43.4685C71.7188 44.0438 71.9469 44.5959 72.3537 45.0027C72.7612 45.4095 73.3126 45.6383 73.8879 45.6383H84.5174C83.9922 48.2105 82.5518 50.5053 80.4632 52.0967C78.3749 53.6875 75.7808 54.4677 73.1606 54.292C70.5412 54.1154 68.0742 52.9953 66.2176 51.1386C64.3609 49.2819 63.2407 46.8151 63.065 44.1956C62.8885 41.5762 63.6687 38.9815 65.2603 36.893C66.8511 34.8046 69.1459 33.364 71.7187 32.8389L71.7188 32.839ZM10.9713 56.4857C23.9862 56.2656 21.5957 58.6425 21.8187 45.6383C21.8187 45.063 21.5906 44.5109 21.1838 44.1041C20.7763 43.6973 20.225 43.4685 19.6496 43.4685H10.9712C9.77341 43.4685 8.80147 44.4397 8.80147 45.6383V54.3167V54.316C8.80147 54.8913 9.03029 55.4433 9.43708 55.8501C9.84387 56.2569 10.3959 56.4857 10.9712 56.4857L10.9713 56.4857ZM13.1411 47.8073H17.4799V52.1462L13.1411 52.1469V47.8073ZM47.8542 43.4685H26.1583C24.9597 43.4685 23.9885 44.4397 23.9885 45.6383V54.3167V54.316C23.9885 54.8913 24.2173 55.4433 24.6241 55.8501C25.0309 56.2569 25.5829 56.4857 26.1583 56.4857H47.8523C48.4277 56.4857 48.9797 56.2569 49.3865 55.8501C49.7933 55.4433 50.0221 54.8913 50.0221 54.316V45.6383C50.0221 45.063 49.7933 44.5109 49.3865 44.1042C48.9797 43.6974 48.4277 43.4685 47.8523 43.4685L47.8542 43.4685ZM45.6844 52.1469H28.3277V47.8073H45.6837L45.6844 52.1469ZM10.9713 39.1297C23.9862 38.9096 21.5957 41.2865 21.8187 28.2823V28.2816C21.8187 27.7062 21.5906 27.1549 21.1838 26.7474C20.7763 26.3406 20.225 26.1125 19.6496 26.1125H10.9712C9.77341 26.1125 8.80147 27.0837 8.80147 28.2815V36.9599C8.80147 37.5352 9.03029 38.0873 9.43708 38.4941C9.84387 38.9009 10.3959 39.1297 10.9712 39.1297H10.9713ZM13.1411 30.4513H17.4799V34.7901H13.1411V30.4513ZM47.8542 26.1125H26.1583C24.9597 26.1125 23.9885 27.0837 23.9885 28.2815V36.9599C23.9885 37.5352 24.2173 38.0873 24.6241 38.4941C25.0309 38.9009 25.5829 39.1297 26.1583 39.1297H47.8523C48.4277 39.1297 48.9797 38.9009 49.3865 38.4941C49.7933 38.0873 50.0221 37.5352 50.0221 36.9599V28.2815C50.0221 27.7062 49.7933 27.1549 49.3865 26.7474C48.9797 26.3406 48.4277 26.1125 47.8523 26.1125L47.8542 26.1125ZM45.6844 34.7909L28.3277 34.7902V30.4513H45.6837L45.6844 34.7909Z" fill="#41463D"/>
</g>
</g>
<defs>
<clipPath id="clip0_1_46">
<rect width="100" height="100" fill="white"/>
</clipPath>
<clipPath id="clip1_1_46">
<rect width="100" height="100" fill="white"/>
</clipPath>
</defs>
</svg>
