<svg width="100" height="100" viewBox="0 0 100 100" fill="none" xmlns="http://www.w3.org/2000/svg">
<g clip-path="url(#clip0_1_45)">
<path d="M87.3871 11.7744C87.3862 10.821 86.97 9.90777 86.231 9.23369C85.492 8.5596 84.4908 8.17999 83.4457 8.17918H69.6506V7.28037C69.6506 6.80367 69.443 6.34623 69.0735 6.00918C68.704 5.67213 68.2025 5.48273 67.6799 5.48273H57.5765C56.9897 3.40979 55.4202 1.68365 53.2964 0.772712C51.1725 -0.138145 48.7144 -0.138145 46.5907 0.772712C44.466 1.68357 42.8975 3.40979 42.3105 5.48273H32.2072C31.6846 5.48273 31.1831 5.67212 30.8136 6.00918C30.4441 6.34624 30.2364 6.80367 30.2364 7.28037V8.17918H16.4414C15.3962 8.17999 14.395 8.55958 13.656 9.23369C12.917 9.90779 12.5009 10.8211 12.5 11.7744V96.2634C12.5009 97.2168 12.917 98.13 13.656 98.8041C14.395 99.4782 15.3963 99.8578 16.4414 99.8586H83.4459C84.4911 99.8578 85.4923 99.4782 86.2313 98.8041C86.9702 98.13 87.3864 97.2167 87.3873 96.2634L87.3871 11.7744ZM30.2362 20.0138C30.2362 20.4905 30.4438 20.9479 30.8133 21.2849C31.1828 21.622 31.6843 21.8114 32.2069 21.8114H67.6799C68.2025 21.8114 68.7039 21.622 69.0734 21.2849C69.4429 20.9479 69.6506 20.4905 69.6506 20.0138V18.9649H75.5627V89.0727H24.324V18.9649H30.2362V20.0138ZM34.1776 9.07796H44.0312C44.5538 9.07796 45.0553 8.88857 45.4248 8.55151C45.7943 8.21445 46.0019 7.75702 46.0019 7.28032C46.0019 5.9955 46.7533 4.80862 47.9727 4.16661C49.192 3.5246 50.6947 3.5246 51.9141 4.16661C53.1335 4.80862 53.8848 5.99554 53.8848 7.28032C53.8848 7.75702 54.0924 8.21446 54.462 8.55151C54.8315 8.88856 55.3329 9.07796 55.8555 9.07796H65.7091V18.2161H34.1776V9.07796ZM83.4456 96.2644H16.4411V11.7754H30.2362V15.3707H22.3533C21.8307 15.3707 21.3292 15.5601 20.9597 15.8972C20.5902 16.2342 20.3826 16.6917 20.3826 17.1684V90.8715C20.3826 91.3482 20.5902 91.8056 20.9597 92.1427C21.3292 92.4797 21.8307 92.6691 22.3533 92.6691H77.5335C78.0561 92.6691 78.5575 92.4797 78.927 92.1427C79.2966 91.8056 79.5042 91.3482 79.5042 90.8715V17.1684C79.5042 16.6917 79.2966 16.2342 78.927 15.8972C78.5575 15.5601 78.0561 15.3707 77.5335 15.3707H69.6506V11.7754H83.4456V96.2644Z" fill="#41463D"/>
<path d="M57.8263 31.998H42.0605C40.9722 31.998 40.0898 31.193 40.0898 30.2003C40.0898 29.2076 40.9722 28.4027 42.0605 28.4027H57.8263C58.9146 28.4027 59.797 29.2076 59.797 30.2003C59.797 31.193 58.9146 31.998 57.8263 31.998Z" fill="#41463D"/>
<path d="M70.4434 40.9861H54.6776C53.5893 40.9861 52.7069 40.1812 52.7069 39.1885C52.7069 38.1958 53.5893 37.3909 54.6776 37.3909H70.4434C71.5317 37.3909 72.4141 38.1958 72.4141 39.1885C72.4141 40.1812 71.5317 40.9861 70.4434 40.9861Z" fill="#41463D"/>
<path d="M70.4434 48.1767H54.6776C53.5893 48.1767 52.7069 47.3718 52.7069 46.3791C52.7069 45.3864 53.5893 44.5814 54.6776 44.5814H70.4434C71.5317 44.5814 72.4141 45.3864 72.4141 46.3791C72.4141 47.3718 71.5317 48.1767 70.4434 48.1767Z" fill="#41463D"/>
<path d="M70.4434 55.3672H54.6776C53.5893 55.3672 52.7069 54.5623 52.7069 53.5696C52.7069 52.5769 53.5893 51.772 54.6776 51.772H70.4434C71.5317 51.772 72.4141 52.5769 72.4141 53.5696C72.4141 54.5623 71.5317 55.3672 70.4434 55.3672Z" fill="#41463D"/>
<path d="M39.2272 54.7201C38.5541 55.0997 37.7043 55.1029 37.0277 54.7297C35.1995 53.6985 26.2354 48.2759 27.6149 41.8574C28.3741 38.3135 33.7962 36.1331 38.1212 39.2515C42.4138 36.1594 47.8552 38.2845 48.6232 41.8574C50.0027 48.2759 41.0376 53.6986 39.227 54.72L39.2272 54.7201ZM31.4833 42.5483C30.8252 45.6076 35.1053 49.1836 38.1195 51.0856C41.124 49.1924 45.4139 45.6109 44.7558 42.5491V42.5483C44.4435 41.0918 41.2103 40.8326 39.8986 42.7104L39.8959 42.7145H39.8942C39.5062 43.2698 38.834 43.6044 38.1126 43.6028C37.3912 43.6012 36.7208 43.2626 36.3363 42.7056C35.0747 40.8943 31.8248 40.961 31.4825 42.5483L31.4833 42.5483Z" fill="#41463D"/>
<path d="M48.8083 82.1284L43.0308 65.5043L39.7977 73.2565V73.2573C39.422 74.1625 38.4736 74.7644 37.4117 74.77H29.2517C28.1635 74.77 27.281 73.9659 27.281 72.9724C27.281 71.9797 28.1635 71.1748 29.2517 71.1748H36.4493L40.7619 60.8344C41.149 59.9066 42.137 59.304 43.2245 59.3328C44.3119 59.3617 45.2603 60.015 45.5867 60.962L51.1425 76.9496L54.2542 66.4985L54.2551 66.4977C54.5446 65.4929 55.529 64.7851 56.6675 64.7626C57.8059 64.741 58.8221 65.4094 59.1589 66.4022L60.8182 71.1755L70.6367 71.1747C71.725 71.1747 72.6074 71.9796 72.6074 72.9723C72.6074 73.965 71.725 74.7699 70.6367 74.7699H59.7995C58.6839 74.7683 57.6986 74.1071 57.3651 73.136L56.824 71.5824L53.7123 82.0343C53.4228 83.0391 52.4375 83.7469 51.299 83.7686C50.1605 83.7902 49.1444 83.1209 48.8082 82.1282L48.8083 82.1284Z" fill="#41463D"/>
</g>
<defs>
<clipPath id="clip0_1_45">
<rect width="100" height="100" fill="white"/>
</clipPath>
</defs>
</svg>
