<?xml version="1.0" encoding="UTF-8"?>
<svg id="Layer_2" data-name="Layer 2" xmlns="http://www.w3.org/2000/svg" viewBox="0 0 222 631.52">
  <defs>
    <style>
      .cls-1 {
        fill: #fff;
      }

      .cls-1, .cls-2 {
        stroke: #550101;
        stroke-miterlimit: 10;
        stroke-width: 4px;
      }

      .cls-3 {
        fill: #550101;
        stroke-width: 0px;
      }

      .cls-2 {
        fill: #f75c33;
      }
    </style>
  </defs>
  <path class="cls-2" d="m191.79,167.03h-45.28c-1.4,18.17-16.59,32.47-35.12,32.47s-33.71-14.3-35.11-32.47H30.57c-6.7,0-12.13,5.43-12.13,12.13v348.26c0,6.7,5.43,12.13,12.13,12.13h161.22c6.7,0,12.13-5.43,12.13-12.13V179.16c0-6.7-5.43-12.13-12.13-12.13Z"/>
  <path class="cls-2" d="m194.33,151.9h-43.95c-.23,0-.43-.15-.51-.36l-30.6-81.87c-3.44-9.2-13.77-13.77-22.9-10.12l-12.89,5.15c-.27.11-.57-.01-.69-.27L54.47,3.62c-1.28-2.73-5.39-1.81-5.36,1.21l.85,106.08c.02,2.54,2.42,4.39,4.88,3.78l34.2-8.55c.41-.11.78.29.64.7l-14.55,42.69c-.08.22-.28.37-.51.37H27.68c-14.18,0-25.68,11.49-25.68,25.67v355.65c0,14.18,11.5,25.68,25.68,25.68h58.92c.24,0,.45.15.52.38l20.93,69.78c.95,3.17,5.38,3.31,6.53.21l25.29-68.02c.08-.21.28-.35.51-.35h53.95c14.18,0,25.67-11.5,25.67-25.68V177.57c0-14.18-11.49-25.67-25.67-25.67Zm9.59,375.52c0,6.7-5.43,12.13-12.13,12.13H30.57c-6.7,0-12.13-5.43-12.13-12.13V179.16c0-6.7,5.43-12.13,12.13-12.13h45.71c1.4,18.17,16.58,32.47,35.11,32.47s33.72-14.3,35.12-32.47h45.28c6.7,0,12.13,5.43,12.13,12.13v348.26Z"/>
  <path class="cls-2" d="m146.51,167.03c-1.4,18.17-16.59,32.47-35.12,32.47s-33.71-14.3-35.11-32.47h-.6c1.14,19.07,16.97,34.17,36.32,34.17s35.18-15.1,36.32-34.17h-1.81Z"/>
  <path class="cls-1" d="m203.92,179.16v348.26c0,6.7-5.43,12.13-12.13,12.13H30.57c-6.7,0-12.13-5.43-12.13-12.13V179.16c0-6.7,5.43-12.13,12.13-12.13h45.71c1.4,18.17,16.58,32.47,35.11,32.47s33.72-14.3,35.12-32.47h45.28c6.7,0,12.13,5.43,12.13,12.13Z"/>
  <circle class="cls-3" cx="111.12" cy="165.81" r="8.22"/>
  <g>
    <path class="cls-3" d="m107.23,184.74c-8.82-1.65-15.68-8.8-16.91-17.76-.16-1.14-1.11-2-2.26-2h-.46c-1.4,0-2.44,1.24-2.25,2.62,1.51,11.15,10.08,20.05,21.05,22.06,1.41.26,2.72-.81,2.72-2.24v-.44c0-1.11-.8-2.03-1.89-2.24Z"/>
    <path class="cls-3" d="m131.92,166.98c-1.24,8.96-8.1,16.11-16.91,17.76-1.09.2-1.89,1.13-1.89,2.24v.44c0,1.43,1.31,2.5,2.72,2.24,10.98-2.01,19.54-10.91,21.05-22.06.19-1.38-.86-2.62-2.25-2.62h-.46c-1.15,0-2.1.86-2.26,2Z"/>
  </g>
</svg>